<svg xmlns="http://www.w3.org/2000/svg" xmlns:xlink="http://www.w3.org/1999/xlink" viewBox="0,0,256,256" width="456px" height="456px"><defs><clipPath id="clip-1">
<path d="M0,256v-256h256v256l-40.10967,0c19.20941,-10.77768 32.13997,-31.32826 32.13997,-55c0,-34.90909 -28.12121,-63.0303 -63.0303,-63.0303c-34.90909,0 -63.0303,28.12121 -63.0303,63.0303c0,23.67174 12.93056,44.22232 32.13997,55z" id="overlayBgMask" fill="none"></path></clipPath></defs><g clip-path="url(#clip-1)" fill="#ffffff" fill-rule="nonzero" stroke="none" stroke-width="1" stroke-linecap="butt" stroke-linejoin="miter" stroke-miterlimit="10" stroke-dasharray="" stroke-dashoffset="0" font-family="none" font-weight="none" font-size="none" text-anchor="none" style="mix-blend-mode: normal"><g transform="scale(5.33333,5.33333)" fill="#ffffff"><path d="M24.67383,4.00977c-0.35794,-0.04158 -0.72284,0.04781 -1.02734,0.25781c-0.405,0.279 -0.64648,0.74042 -0.64648,1.23242v25.65234c-1.80528,-1.32942 -4.27621,-2.15234 -7,-2.15234c-5.514,0 -10,3.365 -10,7.5c0,4.135 4.486,7.5 10,7.5c5.514,0 10,-3.365 10,-7.5v-19.83594l13.97266,5.24023c0.46,0.173 0.97486,0.10912 1.38086,-0.17187c0.405,-0.279 0.64648,-0.74042 0.64648,-1.23242v-5.53516c0,-2.694 -1.6938,-5.13894 -4.2168,-6.08594l-12.75586,-4.7832c-0.115,-0.04325 -0.2342,-0.07208 -0.35352,-0.08594z"></path></g></g><g fill="#ffffff" fill-rule="nonzero" stroke="none" stroke-width="1" stroke-linecap="butt" stroke-linejoin="miter" stroke-miterlimit="10" stroke-dasharray="" stroke-dashoffset="0" font-family="none" font-weight="none" font-size="none" text-anchor="none" style="mix-blend-mode: normal"><g transform="translate(131.66667,147.66667) scale(4.84848,4.84848)" id="overlay"><g id="Layer_2" font-family="Inter, apple-system, BlinkMacSystemFont, &quot;Helvetica Neue&quot;, &quot;Segoe UI&quot;, &quot;Fira Sans&quot;, Roboto, Oxygen, Ubuntu, &quot;Droid Sans&quot;, Arial, sans-serif" font-weight="400" font-size="16" text-anchor="start"></g><g id="Layer_3" font-family="Inter, apple-system, BlinkMacSystemFont, &quot;Helvetica Neue&quot;, &quot;Segoe UI&quot;, &quot;Fira Sans&quot;, Roboto, Oxygen, Ubuntu, &quot;Droid Sans&quot;, Arial, sans-serif" font-weight="400" font-size="16" text-anchor="start"></g><g id="Layer_1"><path d="M12.5,7h-2.5v3h2.5c0.83,0 1.5,-0.67 1.5,-1.5c0,-0.83 -0.67,-1.5 -1.5,-1.5zM12.5,7h-2.5v3h2.5c0.83,0 1.5,-0.67 1.5,-1.5c0,-0.83 -0.67,-1.5 -1.5,-1.5zM11,0c-6.08,0 -11,4.92 -11,11c0,6.08 4.92,11 11,11c6.08,0 11,-4.92 11,-11c0,-6.08 -4.92,-11 -11,-11zM12.5,12h-2.5v1h1c0.55,0 1,0.45 1,1c0,0.55 -0.45,1 -1,1h-1v2c0,0.55 -0.45,1 -1,1c-0.55,0 -1,-0.45 -1,-1v-2h-1c-0.55,0 -1,-0.45 -1,-1c0,-0.55 0.45,-1 1,-1h1v-1h-1c-0.55,0 -1,-0.45 -1,-1c0,-0.55 0.45,-1 1,-1h1v-4c0,-0.55 0.45,-1 1,-1h3.5c1.93,0 3.5,1.57 3.5,3.5c0,1.93 -1.57,3.5 -3.5,3.5zM12.5,7h-2.5v3h2.5c0.83,0 1.5,-0.67 1.5,-1.5c0,-0.83 -0.67,-1.5 -1.5,-1.5z"></path></g></g></g></svg>